<?xml version="1.0" encoding="UTF-8"?>
<svg id="Layer_1" xmlns="http://www.w3.org/2000/svg" version="1.1" viewBox="0 0 259.2 259.2">
  <!-- Generator: Adobe Illustrator 30.1.0, SVG Export Plug-In . SVG Version: 2.1.1 Build 136)  -->
  <defs>
    <style>
      .st0 {
        fill: #e5751f;
      }
    </style>
  </defs>
  <g id="Layer_11" data-name="Layer_1">
    <path class="st0" d="M129.6,23.39c34.63,0,38.68.1,52.35.71,12.66.61,19.54,2.73,24.1,4.45,6.07,2.33,10.33,5.16,14.88,9.72s7.39,8.81,9.72,14.88c1.82,4.56,3.85,11.44,4.45,24.1.61,13.67.71,17.72.71,52.35s-.1,38.68-.71,52.35c-.61,12.66-2.73,19.54-4.45,24.1-2.33,6.07-5.16,10.33-9.72,14.88s-8.81,7.39-14.88,9.72c-4.56,1.82-11.44,3.85-24.1,4.45-13.67.61-17.72.71-52.35.71s-38.68-.1-52.35-.71c-12.66-.61-19.54-2.73-24.1-4.45-6.07-2.33-10.33-5.16-14.88-9.72s-7.39-8.81-9.72-14.88c-1.82-4.56-3.85-11.44-4.45-24.1-.61-13.67-.71-17.72-.71-52.35s.1-38.68.71-52.35c.61-12.66,2.73-19.54,4.45-24.1,2.33-6.07,5.16-10.33,9.72-14.88s8.81-7.39,14.88-9.72c4.56-1.82,11.44-3.85,24.1-4.45,13.67-.61,17.72-.71,52.35-.71M129.6,0c-35.24,0-39.59.1-53.46.81-13.77.61-23.19,2.83-31.49,5.97-8.51,3.34-15.79,7.69-22.98,14.98-7.19,7.19-11.64,14.48-14.98,22.98-3.24,8.2-5.37,17.62-5.97,31.49C.1,90.11-.1,94.47-.1,129.7S0,169.29.71,183.16c.61,13.77,2.83,23.19,5.97,31.49,3.34,8.5,7.69,15.8,14.98,22.98,7.19,7.19,14.48,11.64,22.98,14.99,8.2,3.24,17.62,5.37,31.49,5.97s18.22.81,53.46.81,39.59-.1,53.46-.81c13.77-.61,23.19-2.84,31.49-5.97,8.5-3.34,15.8-7.7,22.98-14.99,7.19-7.19,11.64-14.48,14.99-22.98,3.24-8.2,5.37-17.62,5.97-31.49.61-13.87.81-18.22.81-53.46s-.1-39.59-.81-53.46c-.61-13.77-2.84-23.19-5.97-31.49-3.34-8.51-7.7-15.79-14.99-22.98-7.19-7.19-14.48-11.64-22.98-14.98-8.2-3.24-17.62-5.37-31.49-5.97C169.19.2,164.83,0,129.6,0ZM129.6,63.08c-36.75,0-66.52,29.77-66.52,66.52s29.77,66.52,66.52,66.52,66.52-29.77,66.52-66.52-29.77-66.52-66.52-66.52ZM129.6,172.83c-23.89,0-43.23-19.34-43.23-43.23s19.34-43.23,43.23-43.23,43.23,19.34,43.23,43.23-19.34,43.23-43.23,43.23ZM214.35,60.45c0,8.61-6.99,15.59-15.59,15.59s-15.59-6.99-15.59-15.59,6.99-15.59,15.59-15.59,15.59,6.99,15.59,15.59Z"/>
  </g>
</svg>